<?xml version="1.0" encoding="UTF-8"?><svg id="Layer_1" xmlns="http://www.w3.org/2000/svg" viewBox="0 0 306.81 252.44"><defs><style>.cls-1{fill:#dcecdc;}.cls-1,.cls-2,.cls-3,.cls-4,.cls-5,.cls-6,.cls-7,.cls-8,.cls-9,.cls-10,.cls-11,.cls-12,.cls-13{stroke-width:0px;}.cls-14{stroke:#516bf7;}.cls-14,.cls-15,.cls-16{stroke-miterlimit:10;}.cls-14,.cls-15,.cls-16,.cls-17,.cls-18{fill:none;}.cls-2{fill:#13167d;}.cls-3{fill:#516bf7;}.cls-15{stroke:#fbd3db;}.cls-16{stroke:#b1beff;}.cls-4{fill:#fbd3db;}.cls-5{fill:#fcadc0;}.cls-6{fill:#919015;}.cls-17{stroke:#13167d;stroke-width:2px;}.cls-17,.cls-18{stroke-linecap:round;stroke-linejoin:round;}.cls-18{stroke:#eda4b6;}.cls-7{fill:#2bb673;}.cls-8{fill:#c4c824;}.cls-9{fill:#f37757;}.cls-10{fill:#7583ed;}.cls-11{fill:#b1beff;}.cls-12{fill:#fff;}.cls-13{fill:#f8b600;}</style></defs><path class="cls-1" d="M257.3,202.92c-42.13,40.98-124.28,35.74-173.19,9.17-42.56-23.13-51.83-77.9,12.77-153.49,32.71-38.27,121.51-54.24,157.22-6.59,38,50.71,36.16,118.86,3.2,150.91Z"/><path class="cls-8" d="M236.26,247.61s.74-33.32,4.44-36.29c3.7-2.96,8.89,12.59,8.89,12.59,0,0,0-22.96,6.66-25.18,6.66-2.22,5.92,5.18,5.92,5.18,0,0,5.92-15.55,11.85-17.03s1.48,13.33,1.48,13.33c0,0,7.41-17.77,15.55-13.33,8.15,4.44-11.85,22.22-11.85,22.22,0,0,12.59-5.18,12.59,0s-17.77,11.85-17.77,11.85c0,0,13.33,1.48,9.63,6.66-3.7,5.18-22.22,8.15-22.22,8.15,0,0,14.07.74,11.11,5.18-2.96,4.44-36.29,6.66-36.29,6.66Z"/><path class="cls-6" d="M240.76,240.95s29.13-35.79,32.34-36.04-24.68,30.36-27.89,33.08l-3.21,2.72"/><path class="cls-8" d="M233.85,239.49s-16.76-28.81-15.15-33.27c1.61-4.46,14.15,6.1,14.15,6.1,0,0-11.98-19.58-7.45-24.96,4.53-5.37,7.76,1.33,7.76,1.33,0,0-3.06-16.36,1.22-20.71,4.28-4.36,8.22,10.6,8.22,10.6,0,0-2.96-19.03,6.31-19.49,9.27-.46,1.49,25.13,1.49,25.13,0,0,8.03-10.99,10.74-6.57,2.71,4.42-8.98,19.38-8.98,19.38,0,0,12.14-5.69,11.69.66s-14.7,18.54-14.7,18.54c0,0,12.39-6.71,12.18-1.38-.21,5.34-27.47,24.62-27.47,24.62Z"/><path class="cls-6" d="M234.22,231.45s6.17-45.73,8.78-47.62c2.61-1.89-5.21,38.78-6.53,42.77l-1.32,3.99"/><path class="cls-8" d="M121,235.73s-40.3-5.07-43.43-9.93,16.37-9.2,16.37-9.2c0,0-27.83-2.87-29.69-11.23-1.86-8.36,7.02-6.53,7.02-6.53,0,0-18.11-9.13-19.16-16.49-1.05-7.37,16.34-.13,16.34-.13,0,0-20.62-11.2-14.21-20.52s25.45,17.14,25.45,17.14c0,0-4.71-15.91,1.58-15.26s12.14,23.03,12.14,23.03c0,0,3.46-15.97,9.28-10.84,5.82,5.14,7.09,27.95,7.09,27.95,0,0,2.66-16.96,7.67-12.82s3.54,44.82,3.54,44.82Z"/><path class="cls-12" d="M243.07,249.8l-145.95,1.8s-7.53-84.4,19.26-115.38c28.17-32.57,58.69-18.38,82.6-1.4,29.86,21.21,44.09,114.98,44.09,114.98Z"/><polygon class="cls-4" points="98.46 182.62 82.6 232.35 101.86 230.08 111.7 185.61 98.46 182.62"/><path class="cls-4" d="M196.81,186.42s6.63,27.51,3.28,27.51-48.56,9.21-48.56,9.21l3.35,10.88s68.93,2.95,74.79-9.61c5.86-12.56-6.04-45.85-6.04-45.85l-26.82,7.86Z"/><path class="cls-4" d="M151.53,223.14s-11.16.84-15.63,3.63c-4.47,2.79-6.98,5.86-5.3,6.42s5.3,2.23,7.53.56,12.84,1.95,16.74.28-3.35-10.88-3.35-10.88"/><path class="cls-18" d="M130.88,233.46s1.57-3.23,4.6-4.74,3.63-1.53,3.63-1.53"/><path class="cls-18" d="M133.4,234.16s1.59-3.36,4.88-4.19c2.23-.56,2.93-.7,2.93-.7"/><polyline class="cls-15" points="125.86 126.73 142.33 140.41 150.42 133.99 164.93 140.69 184.19 125.62"/><line class="cls-15" x1="112.28" y1="185.33" x2="119.05" y2="154.99"/><line class="cls-15" x1="187.33" y1="152.55" x2="196.46" y2="186.46"/><polygon class="cls-15" points="162.87 161.48 182.37 159.04 184.81 181.8 164.22 183.16 162.87 161.48"/><polygon class="cls-15" points="124.82 159.87 143.24 161.22 140.53 183.44 121.12 180.87 124.82 159.87"/><line class="cls-15" x1="151.26" y1="134.27" x2="150.79" y2="239.92"/><polyline class="cls-15" points="223.64 178.56 221.3 170.27 193.67 177.8"/><line class="cls-15" x1="100.74" y1="174.73" x2="114.14" y2="177.8"/><rect class="cls-7" y="246.58" width="292.19" height="5.86" transform="translate(292.19 499.02) rotate(180)"/><path class="cls-4" d="M116.02,81.63c0,19.12,5.94,34.11,20.44,34.11s32.09-14.99,32.09-34.11-17.59-35.14-32.09-35.14-20.44,16.02-20.44,35.14Z"/><path class="cls-4" d="M157.4,101.06l6.42,15.91,9.07,3.21-22.47,13.81s-16.05-8.93-16.88-12c-.16-.6,7.67-4.47,7.67-4.47l-3.07-9.92,19.26-6.54Z"/><path class="cls-2" d="M111.35,41.62c12.47-11.48,21.12-.99,36.19-.99s19.35,2.23,22.7,4.09c3.73,2.07,8.51,13.49,1.4,27.72-7.12,14.23-11.72,1.67-11.72,1.67,0,0-10.88-4.19-12.56-15.91,0,0-9.49-7.38-22.05,6.57-12.56,13.95-8.09,33.77-8.09,33.77,0,0-15.07-10.6-13.4-24.28,1.67-13.67,6.42-12.56,5.3-18.42-1.12-5.86-6.7-6.01,2.23-14.23Z"/><ellipse class="cls-2" cx="142.22" cy="81.66" rx="1.78" ry="2.5"/><ellipse class="cls-2" cx="124.08" cy="81.66" rx="1.78" ry="2.5"/><path class="cls-5" d="M131.16,82.67s-6.23,8.93-4.93,10.05c1.3,1.12,6.33,1.86,6.33,1.86l-1.4-11.91Z"/><circle class="cls-5" cx="148.09" cy="91.32" r="5.67"/><ellipse class="cls-5" cx="120.09" cy="91.23" rx="2.05" ry="4.47"/><path class="cls-9" d="M132,101.46s8.84-2.42,12.19-2.05-.47,7.63-6.05,8.19-6.14-6.14-6.14-6.14Z"/><path class="cls-14" d="M167.63,91.6s-3.35,12.65-14.14,14.14"/><circle class="cls-3" cx="152.19" cy="106.05" r="3.16"/><path class="cls-13" d="M144.37,40.44s12.84-.56,15.81,13.95c2.98,14.51,1.49,20.09,1.49,20.09l9.91-1.04s-.23-14.22-2.47-21.29c-3.27-10.36-11.53-11.35-11.53-11.35l-13.21-.37Z"/><path class="cls-17" d="M137.86,72.63s3.35-2.6,8.93,0"/><path class="cls-17" d="M119.63,72.63s3.35-2.6,8.93,0"/><rect class="cls-3" x="156.88" y="68.25" width="21.96" height="25.95" rx="10.98" ry="10.98" transform="translate(335.72 162.46) rotate(-180)"/><rect class="cls-16" x="162.95" y="73.26" width="13.17" height="15.56" rx="6.58" ry="6.58" transform="translate(339.07 162.09) rotate(180)"/><path class="cls-2" d="M177.21,49.71c5.03-4.77,18.42-7.81,18.7,4.74.28,12.56.84,17.02,7.81,24.28,6.98,7.26-1.4,12.56,4.74,21.77,6.14,9.21,3.62,27.71-16.19,21.77-13.95-4.19-14.52-11.08-13.67-19.53.56-5.58,8.65-6.42,4.19-16.74-4.47-10.33,1.95-13.95-5.58-23.16-4.43-5.41-5.3-8.09,0-13.12Z"/><rect class="cls-10" x="105.49" y="239.79" width="53.58" height="6.7" rx="3.35" ry="3.35" transform="translate(264.56 486.28) rotate(-180)"/><path class="cls-10" d="M19.81,246.49h90.36c1.92,0,3.37-1.74,3.03-3.62l-10.6-58.32c-.27-1.46-1.54-2.52-3.03-2.52H9.21c-1.92,0-3.37,1.74-3.03,3.62l10.6,58.32c.27,1.46,1.54,2.52,3.03,2.52Z"/><path class="cls-11" d="M14.79,246.49h90.36c1.92,0,3.37-1.74,3.03-3.62l-10.6-58.32c-.27-1.46-1.54-2.52-3.03-2.52H4.19c-1.92,0-3.37,1.74-3.03,3.62l10.6,58.32c.27,1.46,1.54,2.52,3.03,2.52Z"/><ellipse class="cls-12" cx="51.91" cy="215.2" rx="6.5" ry="7.26" transform="translate(-26.46 8.16) rotate(-7.17)"/><polygon class="cls-13" points="230.91 68.19 257.7 2.33 306.81 50.33 230.91 68.19"/><rect class="cls-9" x="244.46" y="77.34" width="43.53" height="43.53" transform="translate(59.26 -95.48) rotate(22.82)"/><circle class="cls-8" cx="207.79" cy="22.71" r="22.71"/><path class="cls-12" d="M259.23,43.69l5.88-8.21,2.26,1.57c1.72,1.19,4.08.77,5.27-.95l2.91-4.19c1.19-1.72.77-4.08-.95-5.27l-1.23-.86c-3.77-2.62-8.95-1.69-11.57,2.09l-10.86,15.37c-2.62,3.77-1.69,8.95,2.09,11.57l1.23.86c1.72,1.19,4.08.77,5.27-.95l2.91-4.19c1.19-1.72.77-4.08-.95-5.27l-2.26-1.57Z"/><path class="cls-12" d="M208.54,25.73l-.95,2.56c-.41,1.1-1.54,1.63-2.65,1.22-1.03-.38-1.63-1.54-1.22-2.65l1.52-4.1s.05-.02.07-.06q-.02-.05,0-.09c.38-1.03,1.62-1.6,2.65-1.22,2.48.92,5.23-.31,6.13-2.75s-.38-5.16-2.86-6.08c-1.62-.6-3.36-.26-4.59.77-.9.74-2.2.62-2.95-.28-.7-.89-.6-2.15.31-2.89,2.32-1.92,5.62-2.58,8.66-1.46,4.58,1.69,6.95,6.79,5.26,11.36-1.44,3.91-5.38,6.17-9.37,5.68ZM205.35,34.37l-.26.71c-.41,1.1-1.54,1.63-2.65,1.22-1.03-.38-1.63-1.54-1.22-2.65l.26-.71c.39-1.07,1.62-1.6,2.65-1.22,1.1.41,1.61,1.58,1.22,2.65Z"/><polygon class="cls-12" points="278.65 112.58 284.31 95.17 272.83 101.17 278.65 112.58"/><path class="cls-12" d="M268.38,103.49c-1.24.65-2.66.77-3.99.34-.32-.1-.63-.23-.92-.39-.91-.5-1.65-1.26-2.13-2.2l-1.31-2.57-12.13,5.3,29.62,9.63c.1.03.19.04.29.03l-6.06-11.91-3.37,1.76Z"/><polygon class="cls-12" points="253.11 85.01 247.28 102.91 259.49 97.58 253.11 85.01"/><path class="cls-12" d="M268,102.45l15.25-7.97-28.87-9.39,7.88,15.53c1.07,2.11,3.65,2.93,5.74,1.84Z"/><polygon class="cls-8" points="57.19 97.61 67.93 71.2 87.63 90.45 57.19 97.61"/><circle class="cls-9" cx="39.99" cy="99.86" r="8.48"/><circle class="cls-11" cx="61.51" cy="51.4" r="5.44"/><circle class="cls-11" cx="236.09" cy="138.18" r="5.44"/><circle class="cls-11" cx="299.27" cy="68.15" r="5.44"/><rect class="cls-9" x="161.48" y="15.53" width="9.95" height="9.95" transform="translate(12.05 85.98) rotate(-30)"/><rect class="cls-13" x="68.21" y="112.9" width="15.95" height="15.95" transform="translate(-50.23 54.29) rotate(-30)"/></svg>