<?xml version="1.0" encoding="UTF-8"?><svg id="OBJECTS" xmlns="http://www.w3.org/2000/svg" viewBox="0 0 76.33 76.33"><defs><style>.cls-1{fill:#000;stroke-width:0px;}</style></defs><path class="cls-1" d="M38.17,13.61c-11.83,0-21.43,7.68-21.43,17.16,0,8.45,7.62,15.47,17.66,16.89h0s0,0,0,0c.24.03.47.06.71.09,3.42.71.46,4.99,1.57,5.86,1.29,1.01,11.04-5.52,16.97-10.99.86-.72,1.64-1.5,2.33-2.33h.01c.17-.2.3-.36.4-.51,2.03-2.62,3.2-5.71,3.2-9.02,0-9.48-9.59-17.16-21.43-17.16ZM31.17,35.12c0,.61-.5,1.12-1.12,1.12h-4.32c-.61,0-1.12-.5-1.12-1.12v-8.29c0-.61.5-1.12,1.12-1.12h.09c.61,0,1.12.5,1.12,1.12v7.08h3.11c.61,0,1.12.5,1.12,1.12v.09ZM34.4,35.12c0,.61-.5,1.12-1.12,1.12h-.09c-.61,0-1.12-.5-1.12-1.12v-8.29c0-.61.5-1.12,1.12-1.12h.09c.61,0,1.12.5,1.12,1.12v8.29ZM44.53,35.12c0,.29-.12.58-.32.78h0c-.07.08-.16.15-.27.2-.16.09-.34.13-.52.13h-.09c-.15,0-.29-.03-.42-.08-.17-.06-.32-.17-.44-.32h0s-.06-.07-.08-.11l-4.07-5.56v4.96c0,.61-.5,1.12-1.12,1.12h-.09c-.61,0-1.12-.5-1.12-1.12v-8.29c0-.61.5-1.12,1.12-1.12h.09c.41,0,.78.23.97.57l4.04,5.42v-4.87c0-.61.5-1.12,1.12-1.12h.09c.61,0,1.12.5,1.12,1.12v8.29ZM52.51,26.95c0,.61-.5,1.12-1.12,1.12h-3.11v1.77h3.11c.61,0,1.12.5,1.12,1.12v.09c0,.61-.5,1.12-1.12,1.12h-3.11v1.77h3.11c.61,0,1.12.5,1.12,1.12v.09c0,.61-.5,1.12-1.12,1.12h-4.32c-.61,0-1.12-.5-1.12-1.12v-8.29c0-.61.5-1.12,1.12-1.12h4.32c.61,0,1.12.5,1.12,1.12v.09Z"/><path class="cls-1" d="M76.26,41.07c0-.08.02-.16.02-.25,0-.11,0-.21-.02-.29-.05-3.62-.11-7.25-.2-10.87-.12-4.93.47-10.56-1.03-15.31-2.5-7.92-10.76-13.73-18.92-13.86-.33,0-.65,0-.98.01-5.4-.75-11.13-.45-16.53-.36-5.73.1-11.61.11-17.29.92-5.29.09-10.21,2.82-13.78,6.65-1.84,1.97-3.37,4.25-4.48,6.72-1.75,3.9-2.1,8.28-2.29,12.51-.2,4.68-.99,9.58-.7,14.21.53,8.62-.4,18.63,5.19,25.8,2.85,3.65,6.79,6.57,11.21,8.01,7.28,2.37,15.96.94,23.5.96,4.45.01,9.32.51,13.88.09,8.15.31,16.08-5.5,20.04-12.38,1.95-3.38,2.36-7.1,2.43-10.87.02-1.11.01-2.23,0-3.34,0-2.79-.03-5.57-.06-8.36ZM9.28,8.44c3.9-3.55,8.1-4.61,12.93-5.65,5.45,0,10.93-.44,16.39-.45,4.6,0,9.2.42,13.8.4,6.18-.03,11.48.41,16,5.19,3.39,3.59,4.5,7.7,5.34,12.24-.15,5.99.6,12.17.68,18.12.02,1.31.05,2.64.08,3.98-2.66,9.6-5.37,18.28-13.9,21.37-7.44,2.69-16,1.88-23.68,2.14-8.27.28-17.39,1.77-25.05-3.23C3.61,57.16,2.01,46.05,2.34,35.09c0-.18-.06-.31-.15-.4.15-3.23.45-6.46.71-9.69.54-6.58,1.25-11.88,6.38-16.56ZM70.91,57.93c-1.4,3.56-3.4,6.82-6.81,8.8-5.83,3.4-15.59,2.12-22.13,2.34-11.17.37-32.73,3.45-36.73-10.24.65,1,1.38,1.95,2.19,2.81,7.67,8.14,18.46,6.99,27.72,6.63,9.16-.36,20.28,1.43,28.9-3.51,2.67-1.53,4.98-3.92,6.85-6.82ZM67.45,68.01c-3.26,3.06-7.88,5.44-12.39,5.61-4.94.19-10.1.03-15.09.04-9.08.02-20.5,1.77-28.46-3.62-2.71-1.84-5.21-4.17-6.69-7.15-.72-1.44-1.08-2.94-1.29-4.47,2.93,14.6,25.3,13.98,36.81,13.75,8.14-.16,17.6.93,24.76-3.75,5.26-3.43,7.65-9.64,9.15-15.57-.62,5.63-2.33,10.96-6.79,15.15Z"/></svg>