<?xml version="1.0" encoding="UTF-8"?><svg id="Layer_1" xmlns="http://www.w3.org/2000/svg" viewBox="0 0 182.77 22.92"><defs><style>.cls-1{fill:#2bb673;stroke:#5dba70;}.cls-1,.cls-2{stroke-linecap:round;stroke-linejoin:round;stroke-width:.5px;}.cls-2{fill:#000;stroke:#000;}</style></defs><path class="cls-2" d="M4.12,22.03L.25.54h4.06l2.31,14.59L8.77.54h4.3l-3.93,21.49h-5.01Z"/><path class="cls-2" d="M21.13,22.35c-1.61,0-2.88-.28-3.82-.85s-1.61-1.38-2.02-2.44c-.41-1.06-.61-2.33-.61-3.79v-7.99c0-1.49.2-2.75.61-3.79s1.08-1.84,2.02-2.4,2.21-.84,3.82-.84,2.91.28,3.86.84,1.62,1.36,2.03,2.4.61,2.31.61,3.79v7.99c0,1.47-.2,2.73-.61,3.79-.41,1.06-1.08,1.88-2.03,2.44s-2.23.85-3.86.85ZM21.13,18.98c.5,0,.86-.12,1.09-.37.23-.25.38-.57.45-.96.07-.39.11-.79.11-1.19V6.11c0-.42-.04-.83-.11-1.21-.07-.38-.22-.69-.45-.94-.23-.25-.59-.37-1.09-.37-.46,0-.8.12-1.04.37-.23.25-.38.56-.45.94-.07.38-.11.78-.11,1.21v10.35c0,.41.03.8.09,1.19s.2.71.42.96c.22.25.58.37,1.07.37Z"/><path class="cls-2" d="M36.73,22.35c-1.65,0-2.93-.27-3.86-.81-.93-.54-1.58-1.33-1.95-2.36s-.56-2.3-.56-3.81V.54h4.7v15.55c0,.44.04.88.11,1.33.07.44.23.8.46,1.09.24.28.61.42,1.1.42s.88-.14,1.11-.42c.23-.28.38-.65.44-1.09.06-.44.09-.88.09-1.33V.54h4.72v14.83c0,1.5-.19,2.77-.57,3.81s-1.03,1.82-1.95,2.36c-.92.54-2.2.81-3.85.81Z"/><path class="cls-2" d="M52.28,22.35c-1.63,0-2.91-.3-3.86-.89s-1.61-1.42-2-2.49c-.39-1.07-.58-2.33-.58-3.78v-7.75c0-1.49.19-2.76.58-3.83.39-1.07,1.06-1.9,2-2.48.95-.58,2.23-.88,3.86-.88s2.83.26,3.73.78c.89.52,1.53,1.25,1.9,2.19.37.94.56,2.02.56,3.24v1.86h-4.64v-2.15c0-.42-.02-.83-.07-1.22-.04-.39-.17-.71-.38-.97s-.58-.38-1.09-.38-.86.13-1.1.4c-.24.27-.39.6-.45.99-.06.4-.09.82-.09,1.26v10.11c0,.48.04.92.12,1.31s.24.72.48.96.59.36,1.05.36c.5,0,.85-.13,1.06-.38.21-.26.34-.59.4-1,.05-.41.08-.82.08-1.25v-2.25h4.64v1.86c0,1.22-.18,2.31-.54,3.28-.36.96-.99,1.72-1.88,2.28-.89.56-2.14.84-3.75.84Z"/><path class="cls-2" d="M61.14,22.03V.54h4.75v8.7h3.34V.54h4.75v21.49h-4.75v-9.39h-3.34v9.39h-4.75Z"/><path class="cls-2" d="M77.24,22.03V.54h9.66v3.24h-4.91v5.33h3.74v3.29h-3.74v6.42h4.96v3.21h-9.71Z"/><path class="cls-2" d="M89.1,22.03V.54h5.92c1.45,0,2.71.16,3.77.48,1.06.32,1.89.89,2.48,1.71.59.82.89,1.99.89,3.49,0,.88-.07,1.67-.21,2.36s-.4,1.29-.78,1.79c-.38.5-.92.92-1.63,1.26l2.94,10.4h-4.91l-2.36-9.63h-1.35v9.63h-4.75ZM93.85,9.67h1.33c.67,0,1.19-.12,1.56-.36s.63-.58.78-1.03.22-1,.22-1.63c0-.92-.17-1.64-.5-2.15-.34-.51-.96-.77-1.86-.77h-1.54v5.94Z"/><path class="cls-1" d="M106.8,22.35V.86h9.29v3.21h-4.54v5.41h3.95v3.32h-3.95v9.55h-4.75Z"/><path class="cls-1" d="M116.4,22.35L120.46.86h5.41l4.01,21.49h-4.38l-.72-4.54h-3.16l-.74,4.54h-4.48ZM122.05,14.97h2.28l-1.14-8.38-1.14,8.38Z"/><path class="cls-1" d="M137.55,22.67c-1.34,0-2.47-.24-3.37-.72s-1.58-1.22-2.04-2.22c-.46-1-.72-2.29-.77-3.89l4.06-.61c.02.92.1,1.66.25,2.23.15.57.36.97.64,1.22.27.25.61.37,1,.37.49,0,.82-.17.97-.5.15-.34.23-.69.23-1.06,0-.88-.21-1.63-.64-2.24-.42-.61-1-1.22-1.72-1.84l-1.86-1.62c-.81-.69-1.5-1.47-2.06-2.35s-.84-1.96-.84-3.25c0-1.82.54-3.21,1.62-4.18,1.08-.96,2.55-1.45,4.4-1.45,1.15,0,2.07.19,2.77.58.7.39,1.23.9,1.59,1.53.36.63.61,1.29.74,1.99.13.7.21,1.37.23,2l-4.09.5c-.02-.64-.06-1.19-.12-1.66-.06-.47-.19-.83-.38-1.09-.2-.26-.5-.38-.9-.38-.44,0-.76.19-.97.56-.2.37-.31.74-.31,1.11,0,.8.19,1.45.57,1.95.38.5.88,1.03,1.5,1.58l1.78,1.57c.94.8,1.73,1.7,2.37,2.71.65,1.01.97,2.26.97,3.74,0,1.01-.23,1.92-.69,2.75-.46.82-1.11,1.47-1.95,1.95-.84.48-1.83.72-2.98.72Z"/><path class="cls-1" d="M147.42,22.35V4.39h-3.24V.86h11.22v3.53h-3.21v17.96h-4.78Z"/><path class="cls-1" d="M157.29,22.35V.86h9.66v3.24h-4.91v5.33h3.74v3.29h-3.74v6.42h4.96v3.21h-9.71Z"/><path class="cls-1" d="M169.15,22.35V.86h5.92c1.45,0,2.71.16,3.77.48,1.06.32,1.89.89,2.48,1.71s.89,1.99.89,3.49c0,.88-.07,1.67-.21,2.36s-.4,1.29-.78,1.79c-.38.5-.92.92-1.63,1.26l2.95,10.4h-4.91l-2.36-9.63h-1.35v9.63h-4.75ZM173.9,9.99h1.33c.67,0,1.19-.12,1.57-.36.37-.24.63-.58.78-1.03.15-.45.23-1,.23-1.63,0-.92-.17-1.64-.5-2.15-.34-.51-.96-.77-1.86-.77h-1.54v5.94Z"/></svg>