<?xml version="1.0" encoding="UTF-8"?><svg id="Layer_1" xmlns="http://www.w3.org/2000/svg" viewBox="0 0 202.58 202.52"><defs><style>.cls-1{fill:#c5cad3;stroke-width:0px;}</style></defs><path class="cls-1" d="M48.85,178.13c0,4.59.02,9.17,0,13.76-.03,5.51-4.21,10.32-9.75,10.46-9.78.24-19.58.22-29.37,0-5.22-.12-9.62-4.98-9.67-10.17-.08-9.38-.09-18.76,0-28.14.06-5.59,4.99-10.32,10.93-10.4,8.96-.13,17.93-.17,26.89,0,7.45.15,11.23,6.26,11.01,11.37-.19,4.37-.04,8.75-.04,13.13ZM7.1,178.01c0,3.96-.01,7.92,0,11.88.01,3.48,2,5.71,5.43,5.75,7.92.09,15.84.09,23.76,0,3.48-.04,5.51-2.07,5.53-5.42.07-8.13.06-16.26,0-24.39-.02-2.99-2.14-5.15-5.09-5.17-8.2-.06-16.4-.07-24.6,0-2.89.03-5,2.35-5.02,5.26-.02,4.03,0,8.06-.01,12.09Z"/><path class="cls-1" d="M48.85,24.49c0,4.59.02,9.17,0,13.76-.04,5.72-4.9,10.56-10.62,10.58-9.17.02-18.34.02-27.51,0-5.71-.01-10.62-4.85-10.65-10.57C0,29.08.01,19.91.05,10.74.07,4.94,5,.05,10.82.02c9.1-.03,18.2-.03,27.3,0,5.86.02,10.68,4.85,10.72,10.71.03,4.59,0,9.17,0,13.76ZM24.57,7.08c-3.96,0-7.92-.01-11.88,0-3.63.01-5.58,1.99-5.59,5.66-.01,7.78-.01,15.56,0,23.34,0,3.69,1.69,5.7,5.3,5.76,8.05.12,16.11.11,24.16,0,3.44-.05,5.26-1.97,5.28-5.36.06-8.06.05-16.11-.03-24.17-.03-3.34-2.03-5.2-5.38-5.22-3.96-.02-7.92,0-11.88,0Z"/><path class="cls-1" d="M177.98,48.82c-4.38,0-8.75,0-13.13,0-6.29-.01-11.12-4.58-11.21-10.91-.12-8.96-.14-17.93,0-26.89.11-6.46,4.98-11,11.39-11.01,8.75,0,17.51,0,26.26,0,6.13,0,10.98,4.19,11.12,10.26.23,9.58.2,19.17-.05,28.75-.14,5.6-4.99,9.78-10.64,9.79-4.59.01-9.17,0-13.76,0ZM178.19,7.07c-3.96,0-7.92-.01-11.88,0-3.43.01-5.62,2.12-5.63,5.52-.03,7.92-.03,15.84,0,23.76.01,3.16,1.93,5.39,5.03,5.44,8.19.12,16.39.13,24.58.02,3.33-.05,5.31-2.05,5.35-5.38.11-7.99.12-15.98,0-23.96-.05-3.52-2.24-5.38-5.78-5.39-3.89-.01-7.78,0-11.67,0Z"/><path class="cls-1" d="M24.53,167.71c1.8,0,3.61-.02,5.41,0,3.11.05,4.96,1.71,5.07,4.82.12,3.67.13,7.35,0,11.03-.1,3.18-2.17,5.01-5.38,5.03-3.54.01-7.07.02-10.61,0-2.77-.02-4.76-1.53-4.9-4.29-.21-4.21-.16-8.45.08-12.66.14-2.55,1.91-3.83,4.49-3.91.14,0,.28,0,.42,0,1.8,0,3.61,0,5.41,0h0Z"/><path class="cls-1" d="M24.69,14.01c1.87,0,3.75-.12,5.61.03,2.98.24,4.63,1.99,4.71,5,.09,3.61.1,7.22,0,10.82-.08,3.06-2.05,5.04-5.14,5.13-3.6.11-7.22.11-10.82,0-3.04-.09-4.92-1.88-5.05-4.94-.16-3.67-.17-7.36-.01-11.03.15-3.44,1.82-4.94,5.28-5.08,1.8-.07,3.61-.01,5.41-.01,0,.02,0,.04,0,.06Z"/><path class="cls-1" d="M167.76,24.51c0-2.02-.04-4.03.01-6.05.06-2.35,1.38-4.13,3.71-4.25,4.36-.22,8.74-.24,13.1-.04,2.47.11,4,2.19,4.03,4.72.03,3.54.02,7.09,0,10.64,0,3.35-1.87,5.39-5.16,5.47-3.54.09-7.09.1-10.63,0-3.32-.09-5.05-1.96-5.08-5.28-.02-1.74,0-3.48,0-5.21,0,0,.02,0,.03,0Z"/><rect class="cls-1" x="98.48" y=".43" width="5.47" height="5.47" rx="1.19" ry="1.19"/><rect class="cls-1" x="98.48" y="7.44" width="5.47" height="5.47" rx="1.19" ry="1.19"/><rect class="cls-1" x="98.48" y="28.44" width="5.47" height="5.47" rx="1.19" ry="1.19"/><rect class="cls-1" x="98.48" y="35.44" width="5.47" height="5.47" rx="1.19" ry="1.19"/><rect class="cls-1" x="98.48" y="42.44" width="5.47" height="5.47" rx="1.19" ry="1.19"/><rect class="cls-1" x="98.48" y="49.44" width="5.47" height="5.47" rx="1.19" ry="1.19"/><rect class="cls-1" x="98.48" y="56.45" width="5.47" height="5.47" rx="1.19" ry="1.19"/><rect class="cls-1" x="98.48" y="119.46" width="5.47" height="5.47" rx="1.19" ry="1.19"/><rect class="cls-1" x="98.48" y="126.46" width="5.47" height="5.47" rx="1.19" ry="1.19"/><rect class="cls-1" x="98.48" y="154.47" width="5.47" height="5.47" rx="1.19" ry="1.19"/><rect class="cls-1" x="98.48" y="175.47" width="5.47" height="5.47" rx="1.19" ry="1.19"/><rect class="cls-1" x="98.48" y="182.48" width="5.47" height="5.47" rx="1.19" ry="1.19"/><rect class="cls-1" x="98.48" y="196.48" width="5.47" height="5.47" rx="1.19" ry="1.19"/><rect class="cls-1" x="105.48" y=".43" width="5.47" height="5.47" rx="1.19" ry="1.19"/><rect class="cls-1" x="105.48" y="28.44" width="5.47" height="5.47" rx="1.19" ry="1.19"/><rect class="cls-1" x="105.48" y="35.44" width="5.47" height="5.47" rx="1.19" ry="1.19"/><rect class="cls-1" x="105.48" y="126.46" width="5.47" height="5.47" rx="1.19" ry="1.19"/><rect class="cls-1" x="105.48" y="133.46" width="5.47" height="5.47" rx="1.19" ry="1.19"/><rect class="cls-1" x="105.48" y="154.47" width="5.47" height="5.47" rx="1.19" ry="1.19"/><rect class="cls-1" x="105.48" y="168.47" width="5.47" height="5.47" rx="1.19" ry="1.19"/><rect class="cls-1" x="105.48" y="196.48" width="5.47" height="5.47" rx="1.19" ry="1.19"/><rect class="cls-1" x="112.48" y="7.44" width="5.47" height="5.47" rx="1.19" ry="1.19"/><rect class="cls-1" x="112.48" y="14.44" width="5.47" height="5.47" rx="1.19" ry="1.19"/><rect class="cls-1" x="112.48" y="35.44" width="5.47" height="5.47" rx="1.19" ry="1.19"/><rect class="cls-1" x="112.48" y="42.44" width="5.47" height="5.47" rx="1.19" ry="1.19"/><rect class="cls-1" x="112.48" y="63.45" width="5.47" height="5.47" rx="1.19" ry="1.19"/><rect class="cls-1" x="112.48" y="77.45" width="5.47" height="5.47" rx="1.19" ry="1.19"/><rect class="cls-1" x="112.48" y="133.46" width="5.47" height="5.47" rx="1.19" ry="1.19"/><rect class="cls-1" x="112.48" y="147.47" width="5.47" height="5.47" rx="1.19" ry="1.19"/><rect class="cls-1" x="112.48" y="175.47" width="5.47" height="5.47" rx="1.19" ry="1.19"/><rect class="cls-1" x="112.48" y="182.48" width="5.47" height="5.47" rx="1.19" ry="1.19"/><rect class="cls-1" x="119.49" y=".43" width="5.47" height="5.47" rx="1.19" ry="1.19"/><rect class="cls-1" x="119.49" y="7.44" width="5.47" height="5.47" rx="1.19" ry="1.19"/><rect class="cls-1" x="119.49" y="14.44" width="5.47" height="5.47" rx="1.19" ry="1.19"/><rect class="cls-1" x="119.49" y="49.44" width="5.47" height="5.47" rx="1.19" ry="1.19"/><rect class="cls-1" x="119.49" y="63.45" width="5.47" height="5.47" rx="1.19" ry="1.19"/><rect class="cls-1" x="119.49" y="77.45" width="5.47" height="5.47" rx="1.19" ry="1.19"/><rect class="cls-1" x="119.49" y="126.46" width="5.47" height="5.47" rx="1.19" ry="1.19"/><rect class="cls-1" x="119.49" y="133.46" width="5.47" height="5.47" rx="1.19" ry="1.19"/><rect class="cls-1" x="119.49" y="140.47" width="5.47" height="5.47" rx="1.19" ry="1.19"/><rect class="cls-1" x="119.49" y="154.47" width="5.47" height="5.47" rx="1.19" ry="1.19"/><rect class="cls-1" x="119.49" y="161.47" width="5.47" height="5.47" rx="1.19" ry="1.19"/><rect class="cls-1" x="119.49" y="182.48" width="5.47" height="5.47" rx="1.19" ry="1.19"/><rect class="cls-1" x="119.49" y="189.48" width="5.47" height="5.47" rx="1.19" ry="1.19"/><rect class="cls-1" x="119.49" y="196.48" width="5.47" height="5.47" rx="1.19" ry="1.19"/><rect class="cls-1" x="126.49" y=".43" width="5.47" height="5.47" rx="1.19" ry="1.19"/><rect class="cls-1" x="126.49" y="28.44" width="5.47" height="5.47" rx="1.19" ry="1.19"/><rect class="cls-1" x="126.49" y="35.44" width="5.47" height="5.47" rx="1.19" ry="1.19"/><rect class="cls-1" x="126.49" y="42.44" width="5.47" height="5.47" rx="1.19" ry="1.19"/><rect class="cls-1" x="126.49" y="49.44" width="5.47" height="5.47" rx="1.19" ry="1.19"/><rect class="cls-1" x="126.49" y="56.45" width="5.47" height="5.47" rx="1.19" ry="1.19"/><rect class="cls-1" x="126.49" y="70.45" width="5.47" height="5.47" rx="1.19" ry="1.19"/><rect class="cls-1" x="126.49" y="119.46" width="5.47" height="5.47" rx="1.19" ry="1.19"/><rect class="cls-1" x="126.49" y="126.46" width="5.47" height="5.47" rx="1.19" ry="1.19"/><rect class="cls-1" x="126.49" y="133.46" width="5.47" height="5.47" rx="1.19" ry="1.19"/><rect class="cls-1" x="126.49" y="147.47" width="5.47" height="5.47" rx="1.19" ry="1.19"/><rect class="cls-1" x="126.49" y="161.47" width="5.47" height="5.47" rx="1.19" ry="1.19"/><rect class="cls-1" x="126.49" y="168.47" width="5.47" height="5.47" rx="1.19" ry="1.19"/><rect class="cls-1" x="126.49" y="182.48" width="5.47" height="5.47" rx="1.19" ry="1.19"/><rect class="cls-1" x="126.49" y="189.48" width="5.47" height="5.47" rx="1.19" ry="1.19"/><rect class="cls-1" x="126.49" y="196.48" width="5.47" height="5.47" rx="1.19" ry="1.19"/><rect class="cls-1" x="133.49" y=".43" width="5.47" height="5.47" rx="1.19" ry="1.19"/><rect class="cls-1" x="133.49" y="14.44" width="5.47" height="5.47" rx="1.19" ry="1.19"/><rect class="cls-1" x="133.49" y="21.44" width="5.47" height="5.47" rx="1.19" ry="1.19"/><rect class="cls-1" x="133.49" y="35.44" width="5.47" height="5.47" rx="1.19" ry="1.19"/><rect class="cls-1" x="133.49" y="63.45" width="5.47" height="5.47" rx="1.19" ry="1.19"/><rect class="cls-1" x="133.49" y="119.46" width="5.47" height="5.47" rx="1.19" ry="1.19"/><rect class="cls-1" x="133.49" y="126.46" width="5.47" height="5.47" rx="1.19" ry="1.19"/><rect class="cls-1" x="133.49" y="133.46" width="5.47" height="5.47" rx="1.19" ry="1.19"/><rect class="cls-1" x="133.49" y="147.47" width="5.47" height="5.47" rx="1.19" ry="1.19"/><rect class="cls-1" x="133.49" y="154.47" width="5.47" height="5.47" rx="1.19" ry="1.19"/><rect class="cls-1" x="133.49" y="161.47" width="5.47" height="5.47" rx="1.19" ry="1.19"/><rect class="cls-1" x="133.49" y="168.47" width="5.47" height="5.47" rx="1.19" ry="1.19"/><rect class="cls-1" x="133.49" y="182.48" width="5.47" height="5.47" rx="1.19" ry="1.19"/><rect class="cls-1" x="133.49" y="189.48" width="5.47" height="5.47" rx="1.19" ry="1.19"/><rect class="cls-1" x="133.49" y="196.48" width="5.47" height="5.47" rx="1.19" ry="1.19"/><rect class="cls-1" x="140.49" y="7.44" width="5.47" height="5.47" rx="1.19" ry="1.19"/><rect class="cls-1" x="140.49" y="14.44" width="5.47" height="5.47" rx="1.19" ry="1.19"/><rect class="cls-1" x="140.49" y="42.44" width="5.47" height="5.47" rx="1.19" ry="1.19"/><rect class="cls-1" x="140.49" y="63.45" width="5.47" height="5.47" rx="1.19" ry="1.19"/><rect class="cls-1" x="140.49" y="70.45" width="5.47" height="5.47" rx="1.19" ry="1.19"/><rect class="cls-1" x="140.49" y="84.45" width="5.47" height="5.47" rx="1.19" ry="1.19"/><rect class="cls-1" x="140.49" y="105.46" width="5.47" height="5.47" rx="1.19" ry="1.19"/><rect class="cls-1" x="140.49" y="112.46" width="5.47" height="5.47" rx="1.19" ry="1.19"/><rect class="cls-1" x="140.49" y="133.46" width="5.47" height="5.47" rx="1.19" ry="1.19"/><rect class="cls-1" x="140.49" y="140.47" width="5.47" height="5.47" rx="1.19" ry="1.19"/><rect class="cls-1" x="140.49" y="147.47" width="5.47" height="5.47" rx="1.19" ry="1.19"/><rect class="cls-1" x="140.49" y="154.47" width="5.47" height="5.47" rx="1.19" ry="1.19"/><rect class="cls-1" x="140.49" y="161.47" width="5.47" height="5.47" rx="1.19" ry="1.19"/><rect class="cls-1" x="140.49" y="168.47" width="5.47" height="5.47" rx="1.19" ry="1.19"/><rect class="cls-1" x="140.49" y="182.48" width="5.47" height="5.47" rx="1.19" ry="1.19"/><rect class="cls-1" x="140.49" y="196.48" width="5.47" height="5.47" rx="1.19" ry="1.19"/><rect class="cls-1" x="147.49" y="56.45" width="5.47" height="5.47" rx="1.19" ry="1.19"/><rect class="cls-1" x="147.49" y="70.45" width="5.47" height="5.47" rx="1.19" ry="1.19"/><rect class="cls-1" x="147.49" y="77.45" width="5.47" height="5.47" rx="1.19" ry="1.19"/><rect class="cls-1" x="147.49" y="105.46" width="5.47" height="5.47" rx="1.19" ry="1.19"/><rect class="cls-1" x="147.49" y="112.46" width="5.47" height="5.47" rx="1.19" ry="1.19"/><rect class="cls-1" x="147.49" y="140.47" width="5.47" height="5.47" rx="1.19" ry="1.19"/><rect class="cls-1" x="147.49" y="168.47" width="5.47" height="5.47" rx="1.19" ry="1.19"/><rect class="cls-1" x="147.49" y="182.48" width="5.47" height="5.47" rx="1.19" ry="1.19"/><rect class="cls-1" x="147.49" y="189.48" width="5.47" height="5.47" rx="1.19" ry="1.19"/><rect class="cls-1" x="147.49" y="196.48" width="5.47" height="5.47" rx="1.19" ry="1.19"/><rect class="cls-1" x="154.49" y="91.45" width="5.47" height="5.47" rx="1.19" ry="1.19"/><rect class="cls-1" x="154.49" y="112.46" width="5.47" height="5.47" rx="1.19" ry="1.19"/><rect class="cls-1" x="154.49" y="140.47" width="5.47" height="5.47" rx="1.19" ry="1.19"/><rect class="cls-1" x="154.49" y="154.47" width="5.47" height="5.47" rx="1.19" ry="1.19"/><rect class="cls-1" x="154.49" y="168.47" width="5.47" height="5.47" rx="1.19" ry="1.19"/><rect class="cls-1" x="154.49" y="189.48" width="5.47" height="5.47" rx="1.19" ry="1.19"/><rect class="cls-1" x="161.5" y="56.45" width="5.47" height="5.47" rx="1.19" ry="1.19"/><rect class="cls-1" x="161.5" y="84.45" width="5.47" height="5.47" rx="1.19" ry="1.19"/><rect class="cls-1" x="161.5" y="105.46" width="5.47" height="5.47" rx="1.19" ry="1.19"/><rect class="cls-1" x="161.5" y="119.46" width="5.47" height="5.47" rx="1.19" ry="1.19"/><rect class="cls-1" x="161.5" y="126.46" width="5.47" height="5.47" rx="1.19" ry="1.19"/><rect class="cls-1" x="161.5" y="133.46" width="5.47" height="5.47" rx="1.19" ry="1.19"/><rect class="cls-1" x="161.5" y="140.47" width="5.47" height="5.47" rx="1.19" ry="1.19"/><rect class="cls-1" x="161.5" y="168.47" width="5.47" height="5.47" rx="1.19" ry="1.19"/><rect class="cls-1" x="161.5" y="175.47" width="5.47" height="5.47" rx="1.19" ry="1.19"/><rect class="cls-1" x="161.5" y="189.48" width="5.47" height="5.47" rx="1.19" ry="1.19"/><rect class="cls-1" x="168.5" y="56.45" width="5.47" height="5.47" rx="1.19" ry="1.19"/><rect class="cls-1" x="168.5" y="63.45" width="5.47" height="5.47" rx="1.19" ry="1.19"/><rect class="cls-1" x="168.5" y="70.45" width="5.47" height="5.47" rx="1.19" ry="1.19"/><rect class="cls-1" x="168.5" y="77.45" width="5.47" height="5.47" rx="1.19" ry="1.19"/><rect class="cls-1" x="168.5" y="91.45" width="5.47" height="5.47" rx="1.19" ry="1.19"/><rect class="cls-1" x="168.5" y="98.46" width="5.47" height="5.47" rx="1.19" ry="1.19"/><rect class="cls-1" x="168.5" y="112.46" width="5.47" height="5.47" rx="1.19" ry="1.19"/><rect class="cls-1" x="168.5" y="119.46" width="5.47" height="5.47" rx="1.19" ry="1.19"/><rect class="cls-1" x="168.5" y="133.46" width="5.47" height="5.47" rx="1.19" ry="1.19"/><rect class="cls-1" x="168.5" y="140.47" width="5.47" height="5.47" rx="1.19" ry="1.19"/><rect class="cls-1" x="168.5" y="147.47" width="5.47" height="5.47" rx="1.19" ry="1.19"/><rect class="cls-1" x="168.5" y="154.47" width="5.47" height="5.47" rx="1.19" ry="1.19"/><rect class="cls-1" x="168.5" y="161.47" width="5.47" height="5.47" rx="1.19" ry="1.19"/><rect class="cls-1" x="168.5" y="168.47" width="5.47" height="5.47" rx="1.19" ry="1.19"/><rect class="cls-1" x="168.5" y="196.48" width="5.47" height="5.47" rx="1.19" ry="1.19"/><rect class="cls-1" x="175.5" y="63.45" width="5.47" height="5.47" rx="1.19" ry="1.19"/><rect class="cls-1" x="175.5" y="77.45" width="5.47" height="5.47" rx="1.19" ry="1.19"/><rect class="cls-1" x="175.5" y="84.45" width="5.47" height="5.47" rx="1.19" ry="1.19"/><rect class="cls-1" x="175.5" y="105.46" width="5.47" height="5.47" rx="1.19" ry="1.19"/><rect class="cls-1" x="175.5" y="119.46" width="5.47" height="5.47" rx="1.19" ry="1.19"/><rect class="cls-1" x="175.5" y="126.46" width="5.47" height="5.47" rx="1.19" ry="1.19"/><rect class="cls-1" x="175.5" y="161.47" width="5.47" height="5.47" rx="1.19" ry="1.19"/><rect class="cls-1" x="175.5" y="175.47" width="5.47" height="5.47" rx="1.19" ry="1.19"/><rect class="cls-1" x="175.5" y="182.48" width="5.47" height="5.47" rx="1.19" ry="1.19"/><rect class="cls-1" x="182.5" y="56.45" width="5.47" height="5.47" rx="1.19" ry="1.19"/><rect class="cls-1" x="182.5" y="63.45" width="5.47" height="5.47" rx="1.19" ry="1.19"/><rect class="cls-1" x="182.5" y="70.45" width="5.47" height="5.47" rx="1.19" ry="1.19"/><rect class="cls-1" x="182.5" y="84.45" width="5.47" height="5.47" rx="1.19" ry="1.19"/><rect class="cls-1" x="182.5" y="91.45" width="5.47" height="5.47" rx="1.19" ry="1.19"/><rect class="cls-1" x="182.5" y="147.47" width="5.47" height="5.47" rx="1.19" ry="1.19"/><rect class="cls-1" x="182.5" y="175.47" width="5.47" height="5.47" rx="1.19" ry="1.19"/><rect class="cls-1" x="189.5" y="63.45" width="5.47" height="5.47" rx="1.19" ry="1.19"/><rect class="cls-1" x="189.5" y="77.45" width="5.47" height="5.47" rx="1.19" ry="1.19"/><rect class="cls-1" x="189.5" y="91.45" width="5.47" height="5.47" rx="1.19" ry="1.19"/><rect class="cls-1" x="189.5" y="105.46" width="5.47" height="5.47" rx="1.19" ry="1.19"/><rect class="cls-1" x="189.5" y="112.46" width="5.47" height="5.47" rx="1.19" ry="1.19"/><rect class="cls-1" x="189.5" y="133.46" width="5.47" height="5.47" rx="1.19" ry="1.19"/><rect class="cls-1" x="189.5" y="140.47" width="5.47" height="5.47" rx="1.19" ry="1.19"/><rect class="cls-1" x="189.5" y="175.47" width="5.47" height="5.47" rx="1.19" ry="1.19"/><rect class="cls-1" x="189.5" y="182.48" width="5.47" height="5.47" rx="1.19" ry="1.19"/><rect class="cls-1" x="189.5" y="189.48" width="5.47" height="5.47" rx="1.19" ry="1.19"/><rect class="cls-1" x="189.5" y="196.48" width="5.47" height="5.47" rx="1.19" ry="1.19"/><rect class="cls-1" x="196.5" y="63.45" width="5.47" height="5.47" rx="1.19" ry="1.19"/><rect class="cls-1" x="196.5" y="70.45" width="5.47" height="5.47" rx="1.19" ry="1.19"/><rect class="cls-1" x="196.5" y="77.45" width="5.47" height="5.47" rx="1.19" ry="1.19"/><rect class="cls-1" x="196.5" y="84.45" width="5.47" height="5.47" rx="1.19" ry="1.19"/><rect class="cls-1" x="196.5" y="91.45" width="5.47" height="5.47" rx="1.19" ry="1.19"/><rect class="cls-1" x="196.5" y="98.46" width="5.47" height="5.47" rx="1.19" ry="1.19"/><rect class="cls-1" x="196.5" y="112.46" width="5.47" height="5.47" rx="1.19" ry="1.19"/><rect class="cls-1" x="196.5" y="119.46" width="5.47" height="5.47" rx="1.19" ry="1.19"/><rect class="cls-1" x="196.5" y="126.46" width="5.47" height="5.47" rx="1.19" ry="1.19"/><rect class="cls-1" x="196.5" y="147.47" width="5.47" height="5.47" rx="1.19" ry="1.19"/><rect class="cls-1" x="196.5" y="154.47" width="5.47" height="5.47" rx="1.19" ry="1.19"/><rect class="cls-1" x="196.5" y="168.47" width="5.47" height="5.47" rx="1.19" ry="1.19"/><rect class="cls-1" x="196.5" y="182.48" width="5.47" height="5.47" rx="1.19" ry="1.19"/><rect class="cls-1" x="196.5" y="189.48" width="5.47" height="5.47" rx="1.19" ry="1.19"/><rect class="cls-1" x="91.48" y="14.44" width="5.47" height="5.47" rx="1.19" ry="1.19"/><rect class="cls-1" x="91.48" y="21.44" width="5.47" height="5.47" rx="1.19" ry="1.19"/><rect class="cls-1" x="91.48" y="56.45" width="5.47" height="5.47" rx="1.19" ry="1.19"/><rect class="cls-1" x="91.48" y="70.45" width="5.47" height="5.47" rx="1.19" ry="1.19"/><rect class="cls-1" x="91.48" y="77.45" width="5.47" height="5.47" rx="1.19" ry="1.19"/><rect class="cls-1" x="91.48" y="126.46" width="5.47" height="5.47" rx="1.19" ry="1.19"/><rect class="cls-1" x="91.48" y="133.46" width="5.47" height="5.47" rx="1.19" ry="1.19"/><rect class="cls-1" x="91.48" y="140.47" width="5.47" height="5.47" rx="1.19" ry="1.19"/><rect class="cls-1" x="91.48" y="147.47" width="5.47" height="5.47" rx="1.19" ry="1.19"/><rect class="cls-1" x="91.48" y="154.47" width="5.47" height="5.47" rx="1.19" ry="1.19"/><rect class="cls-1" x="91.48" y="161.47" width="5.47" height="5.47" rx="1.19" ry="1.19"/><rect class="cls-1" x="91.48" y="175.47" width="5.47" height="5.47" rx="1.19" ry="1.19"/><rect class="cls-1" x="91.48" y="182.48" width="5.47" height="5.47" rx="1.19" ry="1.19"/><rect class="cls-1" x="84.48" y="21.44" width="5.47" height="5.47" rx="1.19" ry="1.19"/><rect class="cls-1" x="84.48" y="42.44" width="5.47" height="5.47" rx="1.19" ry="1.19"/><rect class="cls-1" x="84.48" y="49.44" width="5.47" height="5.47" rx="1.19" ry="1.19"/><rect class="cls-1" x="84.48" y="56.45" width="5.47" height="5.47" rx="1.19" ry="1.19"/><rect class="cls-1" x="84.48" y="63.45" width="5.47" height="5.47" rx="1.19" ry="1.19"/><rect class="cls-1" x="84.48" y="70.45" width="5.47" height="5.47" rx="1.19" ry="1.19"/><rect class="cls-1" x="84.48" y="77.45" width="5.47" height="5.47" rx="1.19" ry="1.19"/><rect class="cls-1" x="84.48" y="140.47" width="5.47" height="5.47" rx="1.19" ry="1.19"/><rect class="cls-1" x="84.48" y="168.47" width="5.47" height="5.47" rx="1.19" ry="1.19"/><rect class="cls-1" x="84.48" y="175.47" width="5.47" height="5.47" rx="1.19" ry="1.19"/><rect class="cls-1" x="77.48" y="7.44" width="5.47" height="5.47" rx="1.19" ry="1.19"/><rect class="cls-1" x="77.48" y="14.44" width="5.47" height="5.47" rx="1.19" ry="1.19"/><rect class="cls-1" x="77.48" y="28.44" width="5.47" height="5.47" rx="1.19" ry="1.19"/><rect class="cls-1" x="77.48" y="35.44" width="5.47" height="5.47" rx="1.19" ry="1.19"/><rect class="cls-1" x="77.48" y="49.44" width="5.47" height="5.47" rx="1.19" ry="1.19"/><rect class="cls-1" x="77.48" y="56.45" width="5.47" height="5.47" rx="1.19" ry="1.19"/><rect class="cls-1" x="77.48" y="63.45" width="5.47" height="5.47" rx="1.19" ry="1.19"/><rect class="cls-1" x="77.48" y="70.45" width="5.47" height="5.47" rx="1.19" ry="1.19"/><rect class="cls-1" x="77.48" y="77.45" width="5.47" height="5.47" rx="1.19" ry="1.19"/><rect class="cls-1" x="77.48" y="119.46" width="5.47" height="5.47" rx="1.19" ry="1.19"/><rect class="cls-1" x="77.48" y="126.46" width="5.47" height="5.47" rx="1.19" ry="1.19"/><rect class="cls-1" x="77.48" y="133.46" width="5.47" height="5.47" rx="1.19" ry="1.19"/><rect class="cls-1" x="77.48" y="154.47" width="5.47" height="5.47" rx="1.19" ry="1.19"/><rect class="cls-1" x="77.48" y="168.47" width="5.47" height="5.47" rx="1.19" ry="1.19"/><rect class="cls-1" x="77.48" y="175.47" width="5.47" height="5.47" rx="1.19" ry="1.19"/><rect class="cls-1" x="77.48" y="182.48" width="5.47" height="5.47" rx="1.19" ry="1.19"/><rect class="cls-1" x="77.48" y="189.48" width="5.47" height="5.47" rx="1.19" ry="1.19"/><rect class="cls-1" x="77.48" y="196.48" width="5.47" height="5.47" rx="1.19" ry="1.19"/><rect class="cls-1" x="70.47" y="42.44" width="5.47" height="5.47" rx="1.19" ry="1.19"/><rect class="cls-1" x="70.47" y="49.44" width="5.47" height="5.47" rx="1.19" ry="1.19"/><rect class="cls-1" x="70.47" y="56.45" width="5.47" height="5.47" rx="1.19" ry="1.19"/><rect class="cls-1" x="70.47" y="63.45" width="5.47" height="5.47" rx="1.19" ry="1.19"/><rect class="cls-1" x="70.47" y="133.46" width="5.47" height="5.47" rx="1.19" ry="1.19"/><rect class="cls-1" x="70.47" y="140.47" width="5.47" height="5.47" rx="1.19" ry="1.19"/><rect class="cls-1" x="70.47" y="154.47" width="5.47" height="5.47" rx="1.19" ry="1.19"/><rect class="cls-1" x="70.47" y="161.47" width="5.47" height="5.47" rx="1.19" ry="1.19"/><rect class="cls-1" x="70.47" y="168.47" width="5.47" height="5.47" rx="1.19" ry="1.19"/><rect class="cls-1" x="63.47" y="7.44" width="5.47" height="5.47" rx="1.19" ry="1.19"/><rect class="cls-1" x="63.47" y="21.44" width="5.47" height="5.47" rx="1.19" ry="1.19"/><rect class="cls-1" x="63.47" y="28.44" width="5.47" height="5.47" rx="1.19" ry="1.19"/><rect class="cls-1" x="63.47" y="35.44" width="5.47" height="5.47" rx="1.19" ry="1.19"/><rect class="cls-1" x="63.47" y="49.44" width="5.47" height="5.47" rx="1.19" ry="1.19"/><rect class="cls-1" x="63.47" y="56.45" width="5.47" height="5.47" rx="1.19" ry="1.19"/><rect class="cls-1" x="63.47" y="77.45" width="5.47" height="5.47" rx="1.19" ry="1.19"/><rect class="cls-1" x="63.47" y="126.46" width="5.47" height="5.47" rx="1.19" ry="1.19"/><rect class="cls-1" x="63.47" y="133.46" width="5.47" height="5.47" rx="1.19" ry="1.19"/><rect class="cls-1" x="63.47" y="140.47" width="5.47" height="5.47" rx="1.19" ry="1.19"/><rect class="cls-1" x="63.47" y="147.47" width="5.47" height="5.47" rx="1.19" ry="1.19"/><rect class="cls-1" x="63.47" y="154.47" width="5.47" height="5.47" rx="1.19" ry="1.19"/><rect class="cls-1" x="63.47" y="168.47" width="5.47" height="5.47" rx="1.19" ry="1.19"/><rect class="cls-1" x="63.47" y="175.47" width="5.47" height="5.47" rx="1.19" ry="1.19"/><rect class="cls-1" x="63.47" y="182.48" width="5.47" height="5.47" rx="1.19" ry="1.19"/><rect class="cls-1" x="56.47" y="14.44" width="5.47" height="5.47" rx="1.19" ry="1.19"/><rect class="cls-1" x="56.47" y="28.44" width="5.47" height="5.47" rx="1.19" ry="1.19"/><rect class="cls-1" x="56.47" y="35.44" width="5.47" height="5.47" rx="1.19" ry="1.19"/><rect class="cls-1" x="56.47" y="42.44" width="5.47" height="5.47" rx="1.19" ry="1.19"/><rect class="cls-1" x="56.47" y="56.45" width="5.47" height="5.47" rx="1.19" ry="1.19"/><rect class="cls-1" x="56.47" y="84.45" width="5.47" height="5.47" rx="1.19" ry="1.19"/><rect class="cls-1" x="56.47" y="91.45" width="5.47" height="5.47" rx="1.19" ry="1.19"/><rect class="cls-1" x="56.47" y="112.46" width="5.47" height="5.47" rx="1.19" ry="1.19"/><rect class="cls-1" x="56.47" y="119.46" width="5.47" height="5.47" rx="1.19" ry="1.19"/><rect class="cls-1" x="56.47" y="140.47" width="5.47" height="5.47" rx="1.19" ry="1.19"/><rect class="cls-1" x="56.47" y="147.47" width="5.47" height="5.47" rx="1.19" ry="1.19"/><rect class="cls-1" x="56.47" y="168.47" width="5.47" height="5.47" rx="1.19" ry="1.19"/><rect class="cls-1" x="56.47" y="189.48" width="5.47" height="5.47" rx="1.19" ry="1.19"/><rect class="cls-1" x="49.47" y="63.45" width="5.47" height="5.47" rx="1.19" ry="1.19"/><rect class="cls-1" x="49.47" y="77.45" width="5.47" height="5.47" rx="1.19" ry="1.19"/><rect class="cls-1" x="49.47" y="98.46" width="5.47" height="5.47" rx="1.19" ry="1.19"/><rect class="cls-1" x="49.47" y="133.46" width="5.47" height="5.47" rx="1.19" ry="1.19"/><rect class="cls-1" x="49.47" y="140.47" width="5.47" height="5.47" rx="1.19" ry="1.19"/><rect class="cls-1" x="42.47" y="56.45" width="5.47" height="5.47" rx="1.19" ry="1.19"/><rect class="cls-1" x="42.47" y="70.45" width="5.47" height="5.47" rx="1.19" ry="1.19"/><rect class="cls-1" x="42.47" y="84.45" width="5.47" height="5.47" rx="1.19" ry="1.19"/><rect class="cls-1" x="42.47" y="98.46" width="5.47" height="5.47" rx="1.19" ry="1.19"/><rect class="cls-1" x="42.47" y="112.46" width="5.47" height="5.47" rx="1.19" ry="1.19"/><rect class="cls-1" x="42.47" y="126.46" width="5.47" height="5.47" rx="1.19" ry="1.19"/><rect class="cls-1" x="42.47" y="140.47" width="5.47" height="5.47" rx="1.19" ry="1.19"/><rect class="cls-1" x="35.47" y="70.45" width="5.47" height="5.47" rx="1.19" ry="1.19"/><rect class="cls-1" x="35.47" y="84.45" width="5.47" height="5.47" rx="1.19" ry="1.19"/><rect class="cls-1" x="35.47" y="105.46" width="5.47" height="5.47" rx="1.19" ry="1.19"/><rect class="cls-1" x="35.47" y="112.46" width="5.47" height="5.47" rx="1.19" ry="1.19"/><rect class="cls-1" x="35.47" y="119.46" width="5.47" height="5.47" rx="1.19" ry="1.19"/><rect class="cls-1" x="35.47" y="133.46" width="5.47" height="5.47" rx="1.19" ry="1.19"/><rect class="cls-1" x="28.46" y="56.45" width="5.47" height="5.47" rx="1.19" ry="1.19"/><rect class="cls-1" x="28.46" y="63.45" width="5.47" height="5.47" rx="1.19" ry="1.19"/><rect class="cls-1" x="28.46" y="70.45" width="5.47" height="5.47" rx="1.19" ry="1.19"/><rect class="cls-1" x="28.46" y="84.45" width="5.47" height="5.47" rx="1.19" ry="1.19"/><rect class="cls-1" x="28.46" y="91.45" width="5.47" height="5.47" rx="1.19" ry="1.19"/><rect class="cls-1" x="28.46" y="98.46" width="5.47" height="5.47" rx="1.19" ry="1.19"/><rect class="cls-1" x="28.46" y="112.46" width="5.47" height="5.47" rx="1.19" ry="1.19"/><rect class="cls-1" x="28.46" y="126.46" width="5.47" height="5.47" rx="1.19" ry="1.19"/><rect class="cls-1" x="28.46" y="140.47" width="5.47" height="5.47" rx="1.19" ry="1.19"/><rect class="cls-1" x="21.46" y="63.45" width="5.47" height="5.47" rx="1.19" ry="1.19"/><rect class="cls-1" x="21.46" y="77.45" width="5.47" height="5.47" rx="1.19" ry="1.19"/><rect class="cls-1" x="21.46" y="84.45" width="5.47" height="5.47" rx="1.19" ry="1.19"/><rect class="cls-1" x="21.46" y="91.45" width="5.47" height="5.47" rx="1.19" ry="1.19"/><rect class="cls-1" x="21.46" y="98.46" width="5.47" height="5.47" rx="1.19" ry="1.19"/><rect class="cls-1" x="21.46" y="140.47" width="5.47" height="5.47" rx="1.19" ry="1.19"/><rect class="cls-1" x="14.46" y="63.45" width="5.47" height="5.47" rx="1.19" ry="1.19"/><rect class="cls-1" x="14.46" y="70.45" width="5.47" height="5.47" rx="1.19" ry="1.19"/><rect class="cls-1" x="14.46" y="84.45" width="5.47" height="5.47" rx="1.19" ry="1.19"/><rect class="cls-1" x="14.46" y="91.45" width="5.47" height="5.47" rx="1.19" ry="1.19"/><rect class="cls-1" x="14.46" y="98.46" width="5.47" height="5.47" rx="1.19" ry="1.19"/><rect class="cls-1" x="14.46" y="140.47" width="5.47" height="5.47" rx="1.19" ry="1.19"/><rect class="cls-1" x="7.46" y="56.45" width="5.47" height="5.47" rx="1.19" ry="1.19"/><rect class="cls-1" x="7.46" y="63.45" width="5.47" height="5.47" rx="1.19" ry="1.19"/><rect class="cls-1" x="7.46" y="91.45" width="5.47" height="5.47" rx="1.19" ry="1.19"/><rect class="cls-1" x="7.46" y="98.46" width="5.47" height="5.47" rx="1.19" ry="1.19"/><rect class="cls-1" x="7.46" y="112.46" width="5.47" height="5.47" rx="1.19" ry="1.19"/><rect class="cls-1" x="7.46" y="140.47" width="5.47" height="5.47" rx="1.19" ry="1.19"/><rect class="cls-1" x=".46" y="77.45" width="5.47" height="5.47" rx="1.19" ry="1.19"/><rect class="cls-1" x=".46" y="84.45" width="5.47" height="5.47" rx="1.19" ry="1.19"/><rect class="cls-1" x=".46" y="98.46" width="5.47" height="5.47" rx="1.19" ry="1.19"/><rect class="cls-1" x=".46" y="112.46" width="5.47" height="5.47" rx="1.19" ry="1.19"/><rect class="cls-1" x=".46" y="119.46" width="5.47" height="5.47" rx="1.19" ry="1.19"/><rect class="cls-1" x=".46" y="140.47" width="5.47" height="5.47" rx="1.19" ry="1.19"/><path class="cls-1" d="M84.53,111.4c0,.5-.41.91-.91.91h-13.05c-.24,0-.46-.1-.63-.25,0,0,0,0-.01-.01,0,0,0,0-.01-.01-.16-.16-.25-.38-.25-.63h0v-20.29c0-.5.41-.91.91-.91h3.27c.5,0,.91.41.91.91v16.11h8.87c.5,0,.91.41.91.91v3.27ZM92.4,111.4c0,.5-.41.9-.91.9h-3.27c-.5,0-.91-.4-.91-.9v-20.29c0-.5.41-.91.91-.91h3.27c.5,0,.91.41.91.91v20.29ZM114.88,111.4c0,.5-.41.9-.91.9h-3.27c-.08,0-.16-.01-.23-.03,0,0,0,0-.01,0-.02,0-.04-.01-.06-.02,0,0-.02,0-.03-.01-.02,0-.03-.01-.04-.02-.01,0-.03-.01-.04-.02,0,0-.02,0-.03-.01-.02-.01-.04-.02-.06-.03,0,0,0,0,0,0-.09-.06-.17-.13-.23-.22l-9.31-12.57v12.05c0,.5-.41.9-.91.9h-3.27c-.5,0-.91-.4-.91-.9v-20.29c0-.5.41-.91.91-.91h3.27s.02,0,.03,0c.02,0,.03,0,.05,0,.02,0,.03,0,.05,0,.01,0,.03,0,.04,0,.02,0,.03,0,.05.01.01,0,.02,0,.03,0,.02,0,.04.01.05.02.01,0,.02,0,.03.01.02,0,.04.01.05.02,0,0,.02,0,.03.01.02,0,.03.02.05.03,0,0,.02,0,.03.02.02.01.03.02.05.03,0,0,.02.01.02.02.02.01.03.03.05.04,0,0,.01.01.02.02.02.02.04.04.05.06,0,0,0,0,0,0,.02.03.05.06.07.09l9.3,12.55v-12.05c0-.5.41-.91.91-.91h3.27c.5,0,.91.41.91.91v20.29ZM132.91,94.38c0,.5-.4.91-.91.91h-8.87v3.43h8.87c.5,0,.91.41.91.91v3.27c0,.5-.4.91-.91.91h-8.87v3.43h8.87c.5,0,.91.41.91.91v3.27c0,.5-.4.91-.91.91h-13.05c-.24,0-.46-.1-.63-.25,0,0,0,0-.01-.01,0,0,0,0-.01-.01-.16-.16-.25-.38-.25-.63h0v-20.28h0c0-.24.1-.46.25-.63,0,0,0-.01.01-.02,0,0,0,0,.01,0,.16-.16.38-.26.63-.26h13.05c.5,0,.91.41.91.91v3.27Z"/></svg>